<?xml version="1.0" encoding="UTF-8"?>
<svg id="Capa_1" xmlns="http://www.w3.org/2000/svg" viewBox="0 0 29.68 28.08">
  <defs>
    <style>
      .cls-1 {
        fill: #fff;
      }
    </style>
  </defs>
  <path class="cls-1" d="M1.98.02l25.56-.02c1.19.11,2.04.96,2.14,2.09v23.84c-.07,1.17-.96,2.05-2.19,2.14H2.25C1.02,28.01.1,27.16,0,25.98V2.09C.09,1.01.86.18,1.98.02ZM1.98.4c-.87.15-1.51.85-1.58,1.69v23.89c.13,1.02.84,1.65,1.91,1.71h25.12c1.05-.08,1.77-.75,1.85-1.76V2.09c-.07-.89-.79-1.63-1.74-1.71l-25.56.02Z"/>
  <g>
    <rect class="cls-1" x="19.07" y="9.98" width="6.08" height="4.06"/>
    <rect class="cls-1" x="14.09" y="2.73" width="4.06" height="23.2"/>
    <path class="cls-1" d="M6.5,2.73v23.14H2.44V2.73s.07.06.09.06h3.88s.05-.08.09-.06Z"/>
    <path class="cls-1" d="M27.82,6.54h-8.96v-3.75h8.87s.05-.08.09-.06v3.81Z"/>
    <path class="cls-1" d="M13.43,21.89s-.06.08-.06.09v3.9h-6.15v-3.99h6.21Z"/>
  </g>
</svg>